<svg xmlns="http://www.w3.org/2000/svg" width="54.232" height="26.5" viewBox="0 0 54.232 26.5">
  <g id="Group_1969" data-name="Group 1969" transform="translate(-185 -8)">
    <g id="Group_282" data-name="Group 282" transform="translate(192.274 14.572)">
      <g id="Group_281" data-name="Group 281" transform="translate(0.146 0.106)">
        <path id="Path_277" data-name="Path 277" d="M93.5,50.625a3.181,3.181,0,0,1,.384-.053v.013c.053,0,.106-.013.146-.013a1.167,1.167,0,0,0,.225-.027l.013-.013.013-.013H94.3c.066,0,.2-.013.318-.013.265,0,.292.027.3.053v.026c.053.013.093.013.132.027l.04-.013c.026-.013.053-.013.08-.027H95.2a3.78,3.78,0,0,0,.411.027c.066,0,.132.013.185.013l.013-.04h.053v-.013h-.066a.985.985,0,0,1-.225-.04v-.066h.013c0-.013.013-.013.027-.013h.119a1.022,1.022,0,0,0,.2.027h.04a2.746,2.746,0,0,1,.4.066l-.026.066h-.093l.013.013a5,5,0,0,1,.6.119l.013.013c.093.027.159.053.212.066a2.312,2.312,0,0,1,.636.185h.013l.027.027a.3.3,0,0,0,.132.04c.04.013.093.026.172.053.026.013.093.04.146.066a6.981,6.981,0,0,0-1.259-.517l-.066.027h-.027a1.827,1.827,0,0,1-.424-.093l.026-.066c.04.013.066.013.106.027A6.552,6.552,0,0,0,95.1,50.4a6.735,6.735,0,0,0-1.564.186Z" transform="translate(-88.531 -50.4)" fill="#fff"/>
        <path id="Path_278" data-name="Path 278" d="M97.9,96.606h.066l.013.027a.247.247,0,0,1,.132-.066V96.5l-.013.013h-.027c0,.013-.013.026-.026.04l-.013.013-.027.013h-.079C97.913,96.58,97.913,96.593,97.9,96.606Z" transform="translate(-92.348 -90.392)" fill="#fff"/>
        <path id="Path_279" data-name="Path 279" d="M97.9,94.7v.027c0,.026.013.026.013.04a.183.183,0,0,1,.053-.04.1.1,0,0,0-.053-.013Z" transform="translate(-92.348 -88.83)" fill="#fff"/>
        <path id="Path_280" data-name="Path 280" d="M66.8,58.47h0V58.5l-.013.026-.027-.013c-.04-.027-.093-.053-.132-.079a.224.224,0,0,1-.066-.027,1.189,1.189,0,0,0-.252-.066H66.3l-.013.053-.04-.04a.517.517,0,0,0-.252-.106h-.079l-.027-.013v-.013a.131.131,0,0,1-.106-.013.08.08,0,0,0-.053-.013c-.013.013-.026.013-.04.027.027,0,.04.013.066.027l.013.013v.013a.013.013,0,0,0,.013.013l.027.053h-.013l.027.053.026.066-.066-.026c-.013,0-.026-.013-.04-.013l-.013-.013-.013-.013h0c.013.013.026.027.04.027l.04.04-.04.027a.145.145,0,0,1-.106,0h-.04v.027l.027.053h-.146c-.013.066-.066.093-.132.106l-.053.013-.04-.027a.29.29,0,0,1-.04-.066c-.093-.159-.172-.291-.159-.344a.118.118,0,0,1,.079-.079c.027-.013.027-.013.027-.027V58.1h.04a.565.565,0,0,0,.265-.013c.013,0,.027-.013.04-.013h-.093l-.04-.04a.041.041,0,0,1-.013-.027v-.013c-.013,0-.04-.013-.053-.013a.387.387,0,0,0-.119-.026.775.775,0,0,0-.172.026.046.046,0,0,1,.027.013l.026.013-.026.053h-.027a.815.815,0,0,0-.172-.013,1.03,1.03,0,0,1-.212-.026h-.013l-.013-.04-.159-.04c-.013.013-.027.026-.079.013a.543.543,0,0,0-.146-.013.258.258,0,0,1-.106-.013A1.477,1.477,0,0,0,63.9,57.9a1.115,1.115,0,0,0-.49.119c-.066.026-.146.053-.225.08h.04v.026c.013,0,.027-.013.053-.013h.04v.053h.04v-.04h.04a.57.57,0,0,1,.225.066.646.646,0,0,0,.093.04h0l.026-.013h.026v-.066l.053.013c.026,0,.026,0,.04.026l.013.013a.393.393,0,0,1,.053.146.574.574,0,0,0,.013.066.728.728,0,0,0,.093.119.729.729,0,0,1,.093.119l.04.066-.066-.013h-.026l-.013-.013c-.013-.027-.066-.04-.106-.04l-.04.04a.2.2,0,0,0,.053.079c.04.04.093.093.04.159l-.04.04-.026-.053c-.026-.053-.066-.026-.066-.013v.026h-.013c.027.013.066.04.093.053a.294.294,0,0,0,.146.066.119.119,0,0,0,.066-.013c.013,0,.027-.013.04-.013l.053-.013v.053c0,.013-.013.026-.013.04s.013.013.026.027l.066.027-.04.04a.143.143,0,0,1-.106.027H64.1q-.02,0-.04.04l-.04.04L64,59.318l-.026-.013a.5.5,0,0,0-.212-.066c0,.013.013.013.013.026v.013h.04V59.3h.026l-.026.013a.644.644,0,0,0,.04.093.389.389,0,0,1,.053.106v.013l-.04.04c-.026.026-.053.066-.093.079a.294.294,0,0,1-.013.119.358.358,0,0,0,0,.119v.027l-.026.013a.1.1,0,0,0-.053.053l-.013.026h-.013a.049.049,0,0,0-.04.013l-.04.013v-.027a.29.29,0,0,1-.066.04l-.026.013-.013-.027h0a.222.222,0,0,1-.159.013l.026.053h-.053c-.04,0-.053,0-.066.026l-.04.04-.013.013h-.013a.1.1,0,0,1-.093-.04l-.027-.026h0a.29.29,0,0,0-.04.066l-.013.013h-.027c-.079-.013-.093,0-.106.013a.132.132,0,0,1-.106.04H62.7v-.04l-.013-.013h0v.013l-.013.013a.1.1,0,0,0-.026.053.257.257,0,0,1-.119.146h-.013L62.4,60.4v-.027a.369.369,0,0,1,.013-.132H62.32v-.066c0-.013.013-.027.013-.04s0-.026.013-.026v-.027h.026a.069.069,0,0,0,.053-.026.049.049,0,0,1,.04-.013h.013l-.013-.053.026-.013a.348.348,0,0,0,.119-.066.256.256,0,0,1,.119-.066h.358a.256.256,0,0,1,.066-.119c.013-.013.026-.027.026-.04l.013-.013.079-.027.053.053v.013c.106-.053.212-.106.225-.2V59.45a.157.157,0,0,1,.013-.106h-.013l-.013-.013a.046.046,0,0,1-.013-.026v-.053a.574.574,0,0,1-.013-.066v-.027h.026c.013,0,.027,0,.027-.013v-.066h.119c0-.013.013-.026.013-.04a.083.083,0,0,0,0-.08l-.013-.026.04-.013h.013l.013-.04a.794.794,0,0,1-.013-.278v-.159l-.026-.013c-.013-.013-.013-.013-.013-.027a.041.041,0,0,1-.027.013c-.013,0-.013.013-.026.013s0,.04,0,.066a.167.167,0,0,1-.027.172.288.288,0,0,1-.106.066.214.214,0,0,0-.093.053.927.927,0,0,1-.636.384.665.665,0,0,1-.159-.027.215.215,0,0,1-.119.066.441.441,0,0,0-.08.04l-.027.106-.013.013a.328.328,0,0,1-.119.053c-.04.013-.119.04-.119.053h0a.44.44,0,0,1,.239.371v.027a.183.183,0,0,0-.04.053c-.013.013-.013.026-.027.026l-.013.013h-.013a.633.633,0,0,0-.238.053c-.04.013-.066.027-.106.04l-.053.013V60.02a.205.205,0,0,1,.027-.106.224.224,0,0,1,.027-.066h0a.134.134,0,0,1-.053-.093l-.013-.053.053.013h.026V59.7a.013.013,0,0,0-.013-.013h-.093c-.013,0-.053,0-.066-.026v-.013h-.013l-.04-.027V59.6c.013-.026.013-.04.026-.053s.013-.027.026-.053a.119.119,0,0,1-.066-.013.226.226,0,0,0-.132,0,.646.646,0,0,0-.093.04.442.442,0,0,1-.159.066l-.079.053.066-.106.013-.013c0-.013-.013-.013-.013-.027v-.026l.013-.013c.026-.013.04-.04.066-.053h-.04c-.026.013-.066.04-.093.053a.931.931,0,0,1-.3.146v.013a.183.183,0,0,1,.053.04.348.348,0,0,0,.119.066.272.272,0,0,1,.2-.066.351.351,0,0,1,.185.04l.027.013-.066.093h-.013a.389.389,0,0,0-.132.04c-.04.013-.066.04-.106.04a.136.136,0,0,1-.066.079l-.013.013c.013,0,.026.013.04.013l.053.026.066.186.04.026a.16.16,0,0,1,.066.066l.013.013v.066c0,.013-.013.013-.013.027l-.013.013.04.027-.013.013c0,.013-.013.013-.026.026l-.013.013-.027.013h0c.013,0,.027.013.04.013l.026.013v.027a1.248,1.248,0,0,1-.04.119.449.449,0,0,0-.04.106V60.8h-.027c-.04,0-.053.026-.093.08a.357.357,0,0,1-.093.106.162.162,0,0,1-.053.119,1.445,1.445,0,0,1-.7.424h-.04l-.013.013-.013-.013v.04h-.026A1.223,1.223,0,0,0,60,61.65v.013a.08.08,0,0,0,.013.053h.053v.027a.049.049,0,0,0,.013.04V61.8l-.027.04a.461.461,0,0,1-.146.172l-.013.013h-.013a.155.155,0,0,1-.146-.066.179.179,0,0,1,0-.119.191.191,0,0,1,.146-.093.185.185,0,0,1-.04-.119.049.049,0,0,1-.04-.013c-.013,0-.027-.013-.053,0a.46.46,0,0,0-.3.318.423.423,0,0,0,.079.093c.172.186.49.543.278.822a.423.423,0,0,1-.212.119c-.026.013-.04.013-.066.027a.578.578,0,0,1-.212.225v.013l-.053-.027.013-.185h-.013v.026l-.04-.013h-.013c-.027,0-.027-.027-.04-.04h-.04v-.04h-.04v-.04a.258.258,0,0,0-.119-.185h-.133V62.63h-.013a.452.452,0,0,1-.053.212.549.549,0,0,0-.04.212h.053v.027a.37.37,0,0,0,.172.292.794.794,0,0,1,.159.146v.027a.265.265,0,0,1,.027.172.292.292,0,0,0,.013.106c0,.026.013.04.04.053a.248.248,0,0,1,.066.146v.026l-.013.013a.183.183,0,0,1-.053.04l-.013.013-.026-.013-.013-.013v.04h.026l.013.013a.046.046,0,0,1,.013.026l.013.027a.289.289,0,0,1-.013.08.041.041,0,0,1-.013.026.121.121,0,0,1,.106.053.309.309,0,0,0,.093.119.378.378,0,0,1,.093.106v.106a.818.818,0,0,1-.013.2h.013c.04.013.093.026.159.053a.853.853,0,0,0,.318.08c0-.013.013-.027.026-.04l.013-.013h.027A.52.52,0,0,0,60.2,65a.52.52,0,0,1,.186.04l.026.013v.079l-.026.013h-.013a.585.585,0,0,1,.212.08l.013.013.053-.053.027.013H60.7l.013.027v.013h0a.085.085,0,0,1,.079,0v-.013l.013-.04.04.013c.04.013.093.027.132.04l.04.013v.053l.013.026V65.28l.027-.013a.72.72,0,0,1,.238,0c.027,0,.066.013.093.013l.04-.066.066.04v.053h0l-.04.079-.013.013h-.027a1.073,1.073,0,0,1-.291,0c.013,0,.013.013.027.013s.026.013.04.013l.013.013v.04c.013.053,0,.066-.04.093l-.013.013-.225-.119v-.026l.013-.027c.013-.013.013-.026.027-.026-.013,0-.027.013-.053.013h0a.481.481,0,0,1-.238,0l-.013-.013c-.013,0-.026.013-.04.013H60.6c-.013,0-.013,0-.027-.013l-.013-.013v-.04h-.013l-.013.053-.053-.026c-.013-.013-.027-.027-.04-.027s-.026.027-.04.027l-.026.013-.013-.027c-.04-.053-.106-.053-.172-.053a.5.5,0,0,1-.146-.013,1.379,1.379,0,0,1-.133-.053c-.013-.013-.04-.013-.053-.027a.112.112,0,0,0-.093,0c-.027,0-.053.013-.079.013a.872.872,0,0,1-.371-.172l-.013-.013V65l.026-.027c.013,0,.027-.013.04-.027-.013,0-.04-.013-.053-.013l-.013.04-.04-.013a1.671,1.671,0,0,1-.464-.451.554.554,0,0,1-.053-.132.49.49,0,0,0-.066-.146l-.066-.027v-.013l-.04-.119-.013-.053-.079-.04-.027-.013a.332.332,0,0,0-.053-.093l-.027-.053-.079-.08-.093-.093-.013-.013V63.5l.04.013c.053.013.119.027.172.04l.093.026.013.013a.917.917,0,0,0,.331.345.046.046,0,0,1-.013-.027,1.558,1.558,0,0,1-.093-.265.918.918,0,0,0-.159-.344h0l-.026.013a.049.049,0,0,1-.04-.013l-.013-.013v-.027c.013-.119.04-.252.053-.371l-.027-.013c-.013,0-.013-.013-.026-.026l.053-.04.013-.013c.053-.066.026-.172,0-.291a2.222,2.222,0,0,1-.04-.239l-.04-.027a.284.284,0,0,1-.212.133c-.04-.013-.066-.013-.08-.026l-.026-.013v-.026c.053-.265.013-.3-.053-.358a.549.549,0,0,1-.119-.159.283.283,0,0,0,0-.106.1.1,0,0,0-.013-.066h0c-.013.026-.026.04-.04.066s-.013.026-.027.04l-.013.026h-.026a.41.41,0,0,0-.106.026c-.027.013-.04.013-.066.027l-.04.013V61.8l-.013.013-.026.026a.2.2,0,0,1-.053.133.2.2,0,0,1-.079.066.191.191,0,0,1-.04.027,2.265,2.265,0,0,0-.146.185,1.147,1.147,0,0,1-.093.133.576.576,0,0,1-.093.08.289.289,0,0,0-.066.053,1.44,1.44,0,0,0,.013.238.847.847,0,0,1-.026.093l-.013.053v.066a.259.259,0,0,1-.013.093.158.158,0,0,1,.093.093.393.393,0,0,1,.026.345V63.5h-.013c-.013,0-.013.013-.027.013a.088.088,0,0,1-.093.027H56.98l-.013-.013a.406.406,0,0,1-.04-.3c0-.04.013-.08.013-.106a1.01,1.01,0,0,1-.093.172l-.013.013h-.013c-.04,0-.066-.027-.066-.04a.013.013,0,0,0-.013-.013l-.013-.013a2.71,2.71,0,0,1-.066-.318,3.316,3.316,0,0,1-.119-.649,1.29,1.29,0,0,1,.013-.212v-.053c-.027.013-.04.04-.08.04h-.026v-.026c0-.013-.013-.027-.013-.04a.224.224,0,0,1-.027-.119v-.04a.4.4,0,0,1-.053-.132h0a.8.8,0,0,1-.133.093A6.646,6.646,0,0,0,56,63.492,6.572,6.572,0,1,0,66.8,58.47Zm-4.346,5.9.013-.04.04.013c.013.013.013.013.027.013a.29.29,0,0,1,.066-.04c.013-.013.04-.013.053-.027l.013-.013h.013a.718.718,0,0,1,.2.026c.026,0,.04.013.066.013h.026v.172H63l-.026.027c0,.013.013.04.013.053a.132.132,0,0,1,.066.053c.013.013.013.027.04.04a1.275,1.275,0,0,1,.292-.239l.013-.013.013.013a2.129,2.129,0,0,0,.437.159,1.676,1.676,0,0,1,.543.225.115.115,0,0,1,.04.08c0,.013.013.026.013.04a.471.471,0,0,1,.119.053l.119.053v.119h-.027a.08.08,0,0,0-.053.013c.066.119.132.186.212.2h.026v.053l.013.013a.79.79,0,0,1,.146.079l.027.013-.066.106H64.93c-.106-.027-.225-.04-.331-.066h-.013a1.251,1.251,0,0,1-.133-.133.3.3,0,0,0-.265-.146.16.16,0,0,1-.066.066l.026.066-.026.013a.321.321,0,0,1-.172.053.3.3,0,0,1-.186-.079.213.213,0,0,0-.093-.053l-.318.053v-.08l.093-.146h.04c-.013-.027-.013-.053-.027-.066l-.027-.093c-.026-.027-.318-.132-.437-.185a.916.916,0,0,1-.106-.04c-.013.013-.013.026-.026.04l-.027.027h-.08l-.013-.013a.366.366,0,0,0-.08-.106.289.289,0,0,1-.053-.066l-.013-.013.013-.027c.013-.013.013-.013.013-.027l.013-.013h.013a.1.1,0,0,1-.027-.053.046.046,0,0,0-.013-.027.144.144,0,0,0-.066-.013c-.027,0-.053,0-.066-.027C62.426,64.419,62.439,64.393,62.453,64.366Zm.04.278.013.013v.013l.013.013.013.026c0,.04,0,.053-.027.08l-.013.027-.026-.013a.435.435,0,0,0-.252-.053v.013c0,.013-.027.027-.04.027l-.066.013-.013-.026c0-.013-.013-.013-.013-.027v-.013h0c-.027.04-.053.04-.093.053l-.026.013-.027-.013a.209.209,0,0,1-.093-.093l-.013-.027.013-.013c.013-.013.013-.027.027-.027l.013-.013H61.9c.08,0,.146,0,.186.08v-.053l.066-.066h.013a.594.594,0,0,0,.146.013A.492.492,0,0,1,62.492,64.644Zm-.676-.066v-.013h-.08a.1.1,0,0,1-.106-.079l-.013-.027.04-.013.027-.013.278.04-.027.066a.132.132,0,0,1-.053.066l-.04.013ZM62,64.472l.013-.027.026-.027h-.026L62,64.393a.144.144,0,0,1,.013-.08l.013-.026a.5.5,0,0,1-.013-.239l.013-.013c.013-.013.027-.04.04-.053l.013-.027.093.053-.013.027c0,.013,0,.013-.013.026h.106v.066c0,.026-.013.04-.04.053l.079.119-.146-.027V64.3c.013.013.013.026.026.04l.053.106-.053-.013v.093h-.146L62,64.512v-.04Zm-.769-3.365.053-.053H61.3c.027,0,.053.013.08.013l.026.013v.027a.9.9,0,0,1-.146.424l-.013.027-.066-.04-.013-.053C61.1,61.266,61.1,61.252,61.234,61.107Zm-.146,1.06c.013,0,.013,0,.026.013a.5.5,0,0,1,.053-.278l.013-.013h.252v.027a.406.406,0,0,1-.106.437c0,.013.013.026.013.04a.069.069,0,0,0,.026.053c.027-.027.053-.027.093-.04h.027l.026.027a.046.046,0,0,0,.013.026c.013-.013.04,0,.066,0l.04.013v.04a.387.387,0,0,1,.027.119h.013a.218.218,0,0,1,.133.027l.013.013.053.238h-.027l.013.027c0,.013,0,.013.013.026h.053v.146c.053.146.106.331-.027.4l-.013.013v.027c-.013.026-.013.04-.026.053l-.013.027h-.026v-.04l-.013.04h-.04a.249.249,0,0,0-.133-.053h-.013v-.013a.574.574,0,0,1-.013-.066.316.316,0,0,0-.027-.119h0a.144.144,0,0,1-.066.013h-.04c-.013.053-.027.066-.093.08h-.04v-.04a.331.331,0,0,1,.04-.172l.013-.013h.013a.12.12,0,0,0,.093-.04h-.026l-.013-.013c-.013-.013-.013-.027-.027-.027a.2.2,0,0,1-.04-.093v-.013l.013-.013H61.34V62.8l-.027.027-.026.026-.027-.026c-.026-.04-.053-.066-.08-.106l-.053-.079.013-.053h.04c0-.013-.013-.027-.013-.04h-.013l-.04-.133a.91.91,0,0,1-.066-.225V62.14Zm-.212,2.027c-.013.027-.013.04-.027.066a.4.4,0,0,1-.132.225.429.429,0,0,1-.026.291l-.027.04-.04-.066-.04.013c-.026.013-.066.027-.093.04l-.04.013v-.04c0-.053,0-.053-.026-.066a.7.7,0,0,0-.172-.013c-.027,0-.053.013-.093.013h-.027l-.027-.066a.222.222,0,0,1-.159-.013l-.013-.013v-.027a.924.924,0,0,0-.079-.225c-.066-.146-.146-.318.013-.437l.013-.013.027.013a.327.327,0,0,0,.119.053l.013-.04c.013-.027.027-.066.04-.093l.013-.027h.027c.119,0,.146-.04.172-.106a.365.365,0,0,1,.093-.119.19.19,0,0,1,.133-.04h.04a.353.353,0,0,1,.079-.133.4.4,0,0,0,.066-.093l.013-.026h.053l.066-.013.013.026c.04.106.106.132.212.172l.053.026v.093h-.027a.049.049,0,0,0-.04.013c-.013,0-.013,0-.026.013v.013c0,.027-.013.027-.013.04L61,63.717h-.08a.041.041,0,0,0,.013.026l.013.04-.066.013a1.061,1.061,0,0,0,.2.278l.013.013v.053l-.013.013a.049.049,0,0,1-.04.013h-.026A.4.4,0,0,1,60.876,64.194Zm.649.808-.013.013H61.5v-.04l-.013.04L61.432,65l-.013-.013h0l-.106-.027v-.04h0l-.013-.013a.525.525,0,0,1-.093-.252h-.013a.875.875,0,0,1,.013.186V65h-.159c-.013,0-.026-.013-.04-.027L61,64.962v-.252h-.013c-.026,0-.04-.013-.053-.04a2.863,2.863,0,0,1,.132-.557c.013-.026.04-.026.08-.026h0l.053-.066h.027a.191.191,0,0,1,.093.027A.362.362,0,0,0,61.684,64l.013-.013.04.013c.04.013.04.026.053.066v.04l-.013.013c-.04.053-.093.093-.133.146l-.013.013-.2-.013c-.079,0-.172-.013-.252-.013-.026.04-.04.079-.013.106s.027.013.027.026.013.013.027.013a.463.463,0,0,1,.291-.106h.013l.027.026.013.027v.04h.013v.093l-.013.013c-.013.013-.027.027-.04.027l-.013.013H61.5c-.013-.013-.04-.013-.053-.027h0l-.027.013c-.026.013-.04.013-.066.026a.338.338,0,0,1,.079.172v.013l.013.013v-.013l.106.026v.159l.013.013h-.013A.275.275,0,0,1,61.525,65Zm.013.53c.013-.027.013-.066.027-.093l.013-.013a.27.27,0,0,1,.093-.079l-.04-.013.027-.04h0V65.28a.013.013,0,0,1,.013-.013c0-.013.013-.013.013-.027l.013-.013h.053c.04,0,.066,0,.08.066v.013h0a.7.7,0,0,0,.159-.04h.026a.1.1,0,0,1,.053.013l.04.013-.013.04v.079h-.027a.671.671,0,0,0-.2.093.494.494,0,0,1-.239.093h-.053l-.013-.027Zm2.9,3.034h-.027a.205.205,0,0,1-.026.106c-.013.013-.013.026-.027.053v.013h-.013a.537.537,0,0,0-.119.066l-.026.013h-.119l-.013-.027a.183.183,0,0,0-.04-.053c-.026-.04-.08-.08-.066-.159v-.027h.053a.168.168,0,0,1,.079.013h.066l.159-.04c0-.013-.013-.027-.013-.04l-.013-.04h.133l.026.079-.013.013Zm.7-1.232c-.013.04-.013.08-.027.119a.83.83,0,0,1-.093.292.569.569,0,0,1-.119.132c-.026.027-.066.053-.079.08a1.773,1.773,0,0,0-.172.3l-.026.053h-.013c-.027.013-.053.013-.08.026-.106.026-.265.066-.278.119l-.013.026h-.026a.392.392,0,0,1-.133-.026c-.013,0-.04-.013-.053-.013h-.013a.241.241,0,0,1-.146.053h-.027a.683.683,0,0,0-.146-.027c-.146-.026-.238-.04-.3-.212l-.066.013h0l-.013.013a.013.013,0,0,0-.013.013h-.053c-.027,0-.04.013-.066.013-.066,0-.079-.027-.093-.053l-.013-.013-.172-.079.04-.04h0a.506.506,0,0,1-.119-.119.748.748,0,0,1-.159-.053.917.917,0,0,1-.106-.04h-.066a3.1,3.1,0,0,0-.755.119c-.013,0-.013.013-.027.027s-.026.04-.053.053a.377.377,0,0,1-.172,0,.408.408,0,0,0-.133-.013.471.471,0,0,0-.132.027,1.43,1.43,0,0,1-.252.04.463.463,0,0,1-.291-.106l-.013-.013V68l-.013-.04.066-.013h.013a.894.894,0,0,0-.2-.424,1.433,1.433,0,0,1-.146-.238l-.026-.066.053.013V67.2L60.4,67.1l.013.013a.411.411,0,0,1,.027-.331l.013-.027.066.027a.787.787,0,0,1,.45-.146.869.869,0,0,0,.3-.066c.026-.027.053-.066.093-.106l.04-.04a.292.292,0,0,1-.013-.106V66.3l.013-.013c.026-.026.066-.053.093-.079l.04-.027v.013l.013-.013c.013-.013.013-.013.026-.013l.013-.013.066.027A.338.338,0,0,1,61.79,66a.1.1,0,0,1,.04-.013c.013,0,.013,0,.027-.013l-.013-.053.066.013h.026c.013,0,.013,0,.04-.027l.013-.013H62a.248.248,0,0,1,.186.132.145.145,0,0,1,.106,0v-.013l-.026-.04.04-.04a.252.252,0,0,0,.08-.133v-.013H62.4c.026-.013.04-.013.053-.026a.1.1,0,0,1,.04-.027h.013c.053,0,.093-.013.146-.013l-.08-.04v-.04a.013.013,0,0,1,.013-.013l.013-.013h.013a.383.383,0,0,1,.186.053.912.912,0,0,0,.106.04.225.225,0,0,0,.132,0c.027,0,.04-.013.066-.013h.026l.013.013.026-.04.04.027c.013.013.013.013.027.013s.013.013.026.013l.027.013v.04a.175.175,0,0,1-.093.133c-.013.013-.027.013-.04.027a.15.15,0,0,1-.013.106c0,.013-.013.027-.013.04a5.726,5.726,0,0,1,.5.278l.053-.013c.027-.053.04-.119.066-.172l.027-.053.013-.345a.647.647,0,0,1,.04-.093.577.577,0,0,0,.053-.093v-.013l.079-.04.027.027.013.026a1.355,1.355,0,0,0,.093.384.145.145,0,0,1,.106,0h.013v.013c0,.013.013.013.026.027s.026.013.04.04v.013a1.014,1.014,0,0,0,.119.424.441.441,0,0,0,.08.04c.079.027.172.066.172.146.027.027.027.066.04.093s.013.026.013.04l.013-.027.027.027a.049.049,0,0,0,.04.013c.013,0,.027.013.04.027.013.053.013.093.027.132a.289.289,0,0,0,.066.04.4.4,0,0,1,.093.066.013.013,0,0,1,.013-.013v-.013l.053-.013.026.027V67.1a.372.372,0,0,1-.013.066c0,.04-.013.093-.013.133l.053-.027Z" transform="translate(-56 -56.906)" fill="#fff"/>
        <path id="Path_281" data-name="Path 281" d="M109.64,134.693v-.013h.013a.225.225,0,0,0,.08-.079c-.053.04-.119.093-.133.132v.026h.04Z" transform="translate(-102.498 -123.444)" fill="#fff"/>
      </g>
      <path id="Path_282" data-name="Path 282" d="M61.6,63.009a6.7,6.7,0,1,1,6.7-6.7,6.712,6.712,0,0,1-6.7,6.7Zm0-13.157a6.44,6.44,0,1,0,6.453,6.44,6.444,6.444,0,0,0-6.453-6.44Z" transform="translate(-54.9 -49.6)" fill="#fff"/>
    </g>
    <path id="Path_288" data-name="Path 288" d="M14.058,21.015a7.765,7.765,0,0,1,0-15.529,7.384,7.384,0,0,1,1.722.2V0H13.157a13.25,13.25,0,0,0,.093,26.5h2.531V20.816A7.467,7.467,0,0,1,14.058,21.015Z" transform="translate(185 8)" fill="#fff"/>
    <path id="Path_289" data-name="Path 289" d="M126.7,0V6.029a7.774,7.774,0,0,1,0,14.469v6h6.228V11.66l9.46,13.2V13.263L132.954,0Z" transform="translate(75.088 8)" fill="#fff"/>
    <path id="Path_290" data-name="Path 290" d="M258.854,0H252.6V26.5h6.227V11.673l6.254,8.811-5.247-.013V26.5h13.528V20.617Z" transform="translate(-34.131 8)" fill="#fff"/>
  </g>
</svg>
